<svg width="32" height="32" viewBox="0 0 32 32" fill="none" xmlns="http://www.w3.org/2000/svg">
<rect width="32" height="32" fill="#7BA454"/>
<rect x="0" y="0" width="8" height="8" fill="#8BC460"/>
<rect x="8" y="0" width="8" height="8" fill="#8BC460"/>
<rect x="16" y="0" width="8" height="8" fill="#8BC460"/>
<rect x="24" y="0" width="8" height="8" fill="#8BC460"/>
<rect x="0" y="8" width="8" height="8" fill="#98B747"/>
<rect x="8" y="8" width="8" height="8" fill="#98B747"/>
<rect x="16" y="8" width="8" height="8" fill="#98B747"/>
<rect x="24" y="8" width="8" height="8" fill="#98B747"/>
<rect x="0" y="16" width="8" height="8" fill="#6B9443"/>
<rect x="8" y="16" width="8" height="8" fill="#6B9443"/>
<rect x="16" y="16" width="8" height="8" fill="#6B9443"/>
<rect x="24" y="16" width="8" height="8" fill="#6B9443"/>
<rect x="0" y="24" width="8" height="8" fill="#6B9443"/>
<rect x="8" y="24" width="8" height="8" fill="#6B9443"/>
<rect x="16" y="24" width="8" height="8" fill="#6B9443"/>
<rect x="24" y="24" width="8" height="8" fill="#6B9443"/>
</svg>
